<svg width="24" height="24" viewBox="0 0 24 24" fill="none" xmlns="http://www.w3.org/2000/svg">
<path d="M12 13C12.5523 13 13 12.5523 13 12C13 11.4477 12.5523 11 12 11C11.4477 11 11 11.4477 11 12C11 12.5523 11.4477 13 12 13Z" fill="#28333D"/>
<path fill-rule="evenodd" clip-rule="evenodd" d="M15.8583 7.15549C15.9624 6.28249 14.9703 5.70967 14.2663 6.23635L9.27398 9.97127C9.05485 10.1352 8.91248 10.3818 8.88007 10.6536L8.14169 16.8445C8.03756 17.7175 9.0297 18.2903 9.73369 17.7637L14.726 14.0287C14.9452 13.8648 15.0875 13.6182 15.1199 13.3464L15.8583 7.15549ZM9.87303 10.772L14.8654 7.03706L14.127 13.228L9.13465 16.9629L9.87303 10.772Z" fill="#28333D"/>
<path fill-rule="evenodd" clip-rule="evenodd" d="M12 2.5C6.75329 2.5 2.5 6.75329 2.5 12C2.5 17.2467 6.75329 21.5 12 21.5C17.2467 21.5 21.5 17.2467 21.5 12C21.5 6.75329 17.2467 2.5 12 2.5ZM3.5 12C3.5 7.30558 7.30558 3.5 12 3.5C16.6944 3.5 20.5 7.30558 20.5 12C20.5 16.6944 16.6944 20.5 12 20.5C7.30558 20.5 3.5 16.6944 3.5 12Z" fill="#28333D"/>
</svg>
