<svg role="img" width="16" height="16" fill="currentColor" viewBox="0 0 16 16" class="svelte-w9n0xl"><!----><!----><!----><!----><!----><!----><!----><!----><!----><!----><!----><!----><!----><!----><!----><!----><!----><!----><!----><!----><!----><!----><!----><!----><!----><!----><!----><!----><!----><!----><!----><!----><!----><!----><!----><!----><!----><!----><!----><path fill-rule="evenodd" clip-rule="evenodd" d="M7.64645 3.64645C7.45118 3.84171 7.45118 4.15829 7.64645 4.35355C7.84171 4.54882 8.15829 4.54882 8.35355 4.35355L9.93934 2.76777C10.5251 2.18198 11.4749 2.18198 12.0607 2.76777L13.2322 3.93934C13.818 4.52513 13.818 5.47488 13.2322 6.06066L10.0607 9.23223C9.47487 9.81802 8.52513 9.81802 7.93934 9.23223L7.35355 8.64645C7.15829 8.45119 6.84171 8.45119 6.64645 8.64645C6.45118 8.84171 6.45118 9.15829 6.64645 9.35355L7.23223 9.93934C8.20854 10.9157 9.79146 10.9157 10.7678 9.93934L13.9393 6.76777C14.9156 5.79146 14.9156 4.20855 13.9393 3.23224L12.7678 2.06066C11.7915 1.08435 10.2085 1.08435 9.23223 2.06066L7.64645 3.64645ZM8.35352 12.3536C8.54879 12.1583 8.54879 11.8417 8.35352 11.6464C8.15826 11.4512 7.84168 11.4512 7.64642 11.6464L6.06063 13.2322C5.47485 13.818 4.5251 13.818 3.93931 13.2322L2.76774 12.0607C2.18195 11.4749 2.18195 10.5251 2.76774 9.93934L5.93931 6.76777C6.5251 6.18198 7.47485 6.18198 8.06063 6.76777L8.64642 7.35355C8.84168 7.54882 9.15826 7.54882 9.35352 7.35356C9.54879 7.15829 9.54879 6.84171 9.35352 6.64645L8.76774 6.06066C7.79143 5.08435 6.20852 5.08435 5.2322 6.06066L2.06063 9.23223C1.08432 10.2085 1.08432 11.7915 2.06063 12.7678L3.2322 13.9393C4.20852 14.9156 5.79143 14.9156 6.76774 13.9393L8.35352 12.3536Z"></path><!----></svg>