<svg width="24" height="24" viewBox="0 0 24 24" fill="none" xmlns="http://www.w3.org/2000/svg">
<path fill-rule="evenodd" clip-rule="evenodd" d="M5 8C5 7.72386 5.22386 7.5 5.5 7.5L6.5 7.5C6.77614 7.5 7 7.72386 7 8C7 8.27614 6.77614 8.5 6.5 8.5L5.5 8.5C5.22386 8.5 5 8.27614 5 8ZM9 8C9 7.72386 9.22386 7.5 9.5 7.5L18.5 7.5C18.7761 7.5 19 7.72386 19 8C19 8.27614 18.7761 8.5 18.5 8.5L9.5 8.5C9.22386 8.5 9 8.27614 9 8ZM5 12C5 11.7239 5.22386 11.5 5.5 11.5H6.5C6.77614 11.5 7 11.7239 7 12C7 12.2761 6.77614 12.5 6.5 12.5H5.5C5.22386 12.5 5 12.2761 5 12ZM9 12C9 11.7239 9.22386 11.5 9.5 11.5L18.5 11.5C18.7761 11.5 19 11.7239 19 12C19 12.2761 18.7761 12.5 18.5 12.5L9.5 12.5C9.22386 12.5 9 12.2761 9 12ZM18.5 16.5L9.5 16.5C9.22386 16.5 9 16.2761 9 16C9 15.7239 9.22386 15.5 9.5 15.5L18.5 15.5C18.7761 15.5 19 15.7239 19 16C19 16.2761 18.7761 16.5 18.5 16.5ZM6.5 16.5L5.5 16.5C5.22386 16.5 5 16.2761 5 16C5 15.7239 5.22386 15.5 5.5 15.5L6.5 15.5C6.77614 15.5 7 15.7239 7 16C7 16.2761 6.77614 16.5 6.5 16.5Z" fill="#28333D"/>
</svg>
