<svg width="24" height="24" viewBox="0 0 24 24" fill="none" xmlns="http://www.w3.org/2000/svg">
<path fill-rule="evenodd" clip-rule="evenodd" d="M8.58397 14.7226C8.73714 14.4929 9.04758 14.4308 9.27734 14.584L10.0585 15.1048C11.2342 15.8885 12.7658 15.8885 13.9414 15.1048L14.7226 14.584C14.9524 14.4308 15.2628 14.4929 15.416 14.7226C15.5692 14.9524 15.5071 15.2628 15.2773 15.416L14.4961 15.9368C12.9846 16.9445 11.0154 16.9445 9.50384 15.9368L8.72264 15.416C8.49288 15.2628 8.43079 14.9524 8.58397 14.7226Z" fill="#28333D"/>
<path d="M11 12C11 12.5523 10.5523 13 9.99999 13C9.44771 13 8.99999 12.5523 8.99999 12C8.99999 11.4477 9.44771 11 9.99999 11C10.5523 11 11 11.4477 11 12Z" fill="#28333D"/>
<path d="M15 12C15 12.5523 14.5523 13 14 13C13.4477 13 13 12.5523 13 12C13 11.4477 13.4477 11 14 11C14.5523 11 15 11.4477 15 12Z" fill="#28333D"/>
<path d="M19.5 14.25C19.5 7.5 12 2.25 12 2.25C12 2.25 4.5 7.5 4.5 14.25C4.5 16.2391 5.29018 18.1468 6.6967 19.5533C8.10322 20.9598 10.0109 21.75 12 21.75C13.9891 21.75 15.8968 20.9598 17.3033 19.5533C18.7098 18.1468 19.5 16.2391 19.5 14.25Z" stroke="black" stroke-linecap="round" stroke-linejoin="round"/>
</svg>
