<svg role="img" width="16" height="16" fill="currentColor" viewBox="0 0 16 16" class="svelte-w9n0xl"><!----><!----><!----><path fill-rule="evenodd" clip-rule="evenodd" d="M10.0435 6.41199C10.0435 7.51656 9.14803 8.41199 8.04346 8.41199C6.93889 8.41199 6.04346 7.51656 6.04346 6.41199C6.04346 5.30742 6.93889 4.41199 8.04346 4.41199C9.14803 4.41199 10.0435 5.30742 10.0435 6.41199ZM9.04346 6.41199C9.04346 6.96427 8.59574 7.41199 8.04346 7.41199C7.49117 7.41199 7.04346 6.96427 7.04346 6.41199C7.04346 5.8597 7.49117 5.41199 8.04346 5.41199C8.59574 5.41199 9.04346 5.8597 9.04346 6.41199Z"></path><path fill-rule="evenodd" clip-rule="evenodd" d="M8.70235 1.76514L9.06964 2.13244C9.25591 2.31871 9.50857 2.42335 9.77201 2.42335H11.0548C11.6034 2.42335 12.0481 2.86806 12.0481 3.41663V4.69945C12.0481 4.9629 12.1528 5.21555 12.3391 5.40182L12.8168 5.87958C13.2047 6.26748 13.2047 6.89641 12.8168 7.28428L12.3391 7.76207C12.1528 7.94834 12.0481 8.20099 12.0481 8.46441V9.43104C12.0481 9.78994 11.8577 10.1044 11.5725 10.2789L12.6676 12.9387C12.7421 13.1197 12.7034 13.3277 12.5686 13.4697C12.4338 13.6117 12.2281 13.6612 12.0435 13.5962L10.7832 13.1526L10.082 14.2898C9.98071 14.454 9.79344 14.5447 9.60178 14.5224C9.41011 14.5001 9.24873 14.3687 9.18792 14.1856L8.33941 11.6302C8.12056 11.7095 7.87942 11.7095 7.66057 11.6301L6.81206 14.1856C6.75125 14.3687 6.58987 14.5001 6.3982 14.5224C6.20654 14.5447 6.01927 14.454 5.91799 14.2898L5.21675 13.1526L3.95651 13.5962C3.77184 13.6612 3.5662 13.6117 3.4314 13.4697C3.2966 13.3277 3.25783 13.1197 3.33237 12.9387L4.44826 10.2286C4.20486 10.0475 4.04717 9.75769 4.04717 9.43104V8.55968C4.04717 8.29627 3.9425 8.04361 3.75623 7.85734L3.1832 7.28428C2.7953 6.89641 2.7953 6.26748 3.1832 5.87958L3.75623 5.30655C3.9425 5.12028 4.04717 4.86762 4.04717 4.60418V3.41663C4.04717 2.86806 4.49185 2.42335 5.04045 2.42335H6.228C6.49142 2.42335 6.74407 2.31871 6.93034 2.13244L7.29764 1.76514C7.68554 1.37724 8.31447 1.37724 8.70235 1.76514ZM8.00001 2.46748L8.3673 2.83478C8.73984 3.20732 9.24515 3.41663 9.77201 3.41663H11.0548V4.69945C11.0548 5.22634 11.2641 5.73162 11.6367 6.10416L12.1145 6.58194L11.6367 7.0597C11.2641 7.43227 11.0548 7.93755 11.0548 8.46441V9.43104H10.0882C9.56134 9.43104 9.05606 9.64032 8.68352 10.0129L8.00001 10.6964L7.31649 10.0129C6.94392 9.64032 6.43864 9.43104 5.91178 9.43104H5.04045V8.55968C5.04045 8.03282 4.83114 7.52754 4.4586 7.15497L3.88554 6.58194L4.4586 6.00889C4.83114 5.63635 5.04045 5.13107 5.04045 4.60418V3.41663H6.228C6.75486 3.41663 7.26014 3.20732 7.63271 2.83478L8.00001 2.46748ZM5.44185 10.4243L4.6733 12.2909L5.26446 12.0827C5.48483 12.0052 5.72948 12.0917 5.8521 12.2905L6.20478 12.8625L6.84207 10.9432L6.61412 10.7152C6.42785 10.529 6.17523 10.4243 5.91178 10.4243H5.44185ZM9.15791 10.9432L9.7952 12.8625L10.1479 12.2905C10.2705 12.0917 10.5152 12.0052 10.7355 12.0827L11.3267 12.2909L10.5581 10.4243H10.0882C9.82479 10.4243 9.57213 10.529 9.38586 10.7152L9.15791 10.9432Z"></path><!----></svg>