<svg width="24" height="24" viewBox="0 0 24 24" fill="none" xmlns="http://www.w3.org/2000/svg">
<path d="M14.4659 10.3438V11H18.7727V10.1165H15.7756L18.7557 5.83807V5.18182H14.4489V6.06535H17.4489L14.4659 10.3438Z" fill="black"/>
<path d="M8 5.5C8.27614 5.5 8.5 5.72386 8.5 6V16.7929L10.6464 14.6464C10.8417 14.4512 11.1583 14.4512 11.3536 14.6464C11.5488 14.8417 11.5488 15.1583 11.3536 15.3536L8 18.7071L4.64645 15.3536C4.45118 15.1583 4.45118 14.8417 4.64645 14.6464C4.84171 14.4512 5.15829 14.4512 5.35355 14.6464L7.5 16.7929V6C7.5 5.72386 7.72386 5.5 8 5.5Z" fill="black"/>
<path fill-rule="evenodd" clip-rule="evenodd" d="M15.321 19H14.196L16.2443 13.1818H17.5454L19.5966 19H18.4716L17.9895 17.5653H15.8022L15.321 19ZM16.9176 14.375L17.7051 16.7188H16.0861L16.8722 14.375H16.9176Z" fill="black"/>
</svg>
