<svg width="24" height="24" viewBox="0 0 24 24" fill="none" xmlns="http://www.w3.org/2000/svg">
<path d="M16 5.5C16.2761 5.5 16.5 5.72386 16.5 6V16.7929L18.6464 14.6464C18.8417 14.4512 19.1583 14.4512 19.3536 14.6464C19.5488 14.8417 19.5488 15.1583 19.3536 15.3536L16 18.7071L12.6464 15.3536C12.4512 15.1583 12.4512 14.8417 12.6464 14.6464C12.8417 14.4512 13.1583 14.4512 13.3536 14.6464L15.5 16.7929V6C15.5 5.72386 15.7239 5.5 16 5.5Z" fill="black"/>
<path d="M4.5 18C4.5 18.2761 4.72386 18.5 5 18.5H13C13.2761 18.5 13.5 18.2761 13.5 18C13.5 17.7239 13.2761 17.5 13 17.5H5C4.72386 17.5 4.5 17.7239 4.5 18Z" fill="black"/>
<path d="M5 14.5C4.72386 14.5 4.5 14.2761 4.5 14C4.5 13.7239 4.72386 13.5 5 13.5H11C11.2761 13.5 11.5 13.7239 11.5 14C11.5 14.2761 11.2761 14.5 11 14.5H5Z" fill="black"/>
<path d="M4.5 10C4.5 10.2761 4.72386 10.5 5 10.5H9C9.27614 10.5 9.5 10.2761 9.5 10C9.5 9.72386 9.27614 9.5 9 9.5H5C4.72386 9.5 4.5 9.72386 4.5 10Z" fill="black"/>
<path d="M5 6.5C4.72386 6.5 4.5 6.27614 4.5 6C4.5 5.72386 4.72386 5.5 5 5.5H7C7.27614 5.5 7.5 5.72386 7.5 6C7.5 6.27614 7.27614 6.5 7 6.5H5Z" fill="black"/>
</svg>
