<svg width="24" height="24" viewBox="0 0 24 24" fill="none" xmlns="http://www.w3.org/2000/svg">
<path fill-rule="evenodd" clip-rule="evenodd" d="M8.28743 7.50826C5.79108 7.25267 3.55843 9.25172 3.085 12.131C2.84755 13.5751 3.13374 14.621 3.61321 15.3157C4.09645 16.016 4.7982 16.3945 5.46236 16.4741C6.71353 16.624 7.94526 16.3576 8.92957 15.6026C9.9106 14.8501 10.6994 13.571 10.9888 11.5933C11.1304 10.6255 10.9685 9.64465 10.5186 8.8925C10.0775 8.15506 9.35038 7.6171 8.28743 7.50826ZM2.09825 11.9687C2.63376 8.71193 5.23316 6.19032 8.38928 6.51346C9.78011 6.65587 10.781 7.38312 11.3768 8.37919C11.9638 9.36055 12.1475 10.5815 11.9782 11.7381C11.6592 13.9181 10.7661 15.4542 9.53819 16.396C8.31354 17.3354 6.80917 17.6426 5.34341 17.467C4.39557 17.3534 3.43694 16.8209 2.79018 15.8837C2.13966 14.9411 1.82621 13.6232 2.09825 11.9687ZM14.9746 6.49781H18.6059C19.9968 6.49781 20.9589 7.07313 21.4975 7.91483C22.0202 8.73187 22.1076 9.74332 21.886 10.5813C21.4087 12.3859 19.7795 13.7153 17.6963 13.7153H14.871C14.8266 13.7153 14.7835 13.7095 14.7425 13.6987L14.1665 17.0252C14.1194 17.2973 13.8606 17.4797 13.5885 17.4326C13.3164 17.3855 13.1341 17.1267 13.1812 16.8546L14.9746 6.49781ZM14.9128 12.7153H17.6963C19.3287 12.7153 20.5587 11.6887 20.9192 10.3256C21.0794 9.72002 21.0069 9.00364 20.6551 8.45376C20.3191 7.92853 19.692 7.49781 18.6059 7.49781H15.8163L14.9128 12.7153Z" fill="black"/>
</svg>
