<svg width="24" height="24" viewBox="0 0 24 24" fill="none" xmlns="http://www.w3.org/2000/svg">
<path d="M7 6.5C6.72386 6.5 6.5 6.72386 6.5 7C6.5 7.27614 6.72386 7.5 7 7.5H9C9.27614 7.5 9.5 7.27614 9.5 7C9.5 6.72386 9.27614 6.5 9 6.5H7Z" fill="#28333D"/>
<path d="M7 10.5C6.72386 10.5 6.5 10.7239 6.5 11C6.5 11.2761 6.72386 11.5 7 11.5H12C12.2761 11.5 12.5 11.2761 12.5 11C12.5 10.7239 12.2761 10.5 12 10.5H7Z" fill="#28333D"/>
<path d="M7 13.5C6.72386 13.5 6.5 13.7239 6.5 14C6.5 14.2761 6.72386 14.5 7 14.5H10C10.2761 14.5 10.5 14.2761 10.5 14C10.5 13.7239 10.2761 13.5 10 13.5H7Z" fill="#28333D"/>
<path d="M7 16.5C6.72386 16.5 6.5 16.7239 6.5 17C6.5 17.2761 6.72386 17.5 7 17.5H9C9.27614 17.5 9.5 17.2761 9.5 17C9.5 16.7239 9.27614 16.5 9 16.5H7Z" fill="#28333D"/>
<path fill-rule="evenodd" clip-rule="evenodd" d="M15 20.5C15.8284 20.5 16.5 19.8284 16.5 19V12.0476L20.2262 5.74447C20.5917 5.11144 20.4094 4.72132 19.9764 4.47132C19.5434 4.22132 19.0857 4.30051 18.7202 4.93354L16.5 8.8758V5C16.5 4.17157 15.8284 3.5 15 3.5H5C4.17157 3.5 3.5 4.17157 3.5 5V19C3.5 19.8284 4.17157 20.5 5 20.5H15ZM5 4.5C4.72386 4.5 4.5 4.72386 4.5 5V19C4.5 19.2761 4.72386 19.5 5 19.5H15C15.2761 19.5 15.5 19.2761 15.5 19V13.7391L14.3622 15.6637L12.7264 17.0287L13.0906 14.9296L15.5 10.6514V5C15.5 4.72386 15.2761 4.5 15 4.5H5Z" fill="#28333D"/>
</svg>
