<svg role="img" width="16" height="16" fill="currentColor" viewBox="0 0 16 16" class="svelte-w9n0xl"><!----><!----><!----><!----><!----><!----><!----><!----><!----><!----><!----><!----><!----><!----><!----><!----><!----><!----><!----><!----><!----><!----><!----><!----><!----><!----><!----><!----><!----><!----><!----><!----><!----><!----><!----><!----><!----><!----><!----><!----><!----><!----><!----><!----><!----><!----><!----><!----><!----><!----><!----><!----><!----><!----><!----><path fill-rule="evenodd" clip-rule="evenodd" d="M8.445 11.527c-.137-1.49.08-3.501.96-4.474.925.206 2.777-.43 3.45-1.713.61-1.165.5-2.874.843-3.34-4.026 0-4.693 4.161-5.846 7.278C6.999 6.974 4.324 5.422 2 6.368c.945.654 1.534 2.265 2.814 2.41.403.045 1.135 0 1.618-.91 1.14.926.974 2.048.825 3.662-.06.65-.284 1.27-.252 1.786.048.912 1.646.912 1.694 0 .034-.516-.192-1.136-.252-1.786l-.002-.003z"></path><!----></svg>