<svg width="24" height="24" viewBox="0 0 24 24" fill="none" xmlns="http://www.w3.org/2000/svg">
<path fill-rule="evenodd" clip-rule="evenodd" d="M12 5C10.6401 5 9.59555 6.20442 9.78786 7.55061L11.01 14.1059C11.1736 15.2507 12.8264 15.2506 12.9899 14.1059L14.2121 7.55061C14.4044 6.20442 13.3599 5 12 5ZM10.7778 7.40919C10.6716 6.66543 11.2487 6 12 6C12.7513 6 13.3284 6.66543 13.2222 7.40919L12 13.9645L10.7778 7.40919Z" fill="#28333D"/>
<path d="M12 19C12.8284 19 13.5 18.3284 13.5 17.5C13.5 16.6716 12.8284 16 12 16C11.1716 16 10.5 16.6716 10.5 17.5C10.5 18.3284 11.1716 19 12 19Z" fill="#28333D"/>
<path fill-rule="evenodd" clip-rule="evenodd" d="M12 2.5C6.75329 2.5 2.5 6.75329 2.5 12C2.5 17.2467 6.75329 21.5 12 21.5C17.2467 21.5 21.5 17.2467 21.5 12C21.5 6.75329 17.2467 2.5 12 2.5ZM3.5 12C3.5 7.30558 7.30558 3.5 12 3.5C16.6944 3.5 20.5 7.30558 20.5 12C20.5 16.6944 16.6944 20.5 12 20.5C7.30558 20.5 3.5 16.6944 3.5 12Z" fill="#28333D"/>
</svg>
