<svg width="24" height="24" viewBox="0 0 24 24" fill="none" xmlns="http://www.w3.org/2000/svg">
<path fill-rule="evenodd" clip-rule="evenodd" d="M14.196 11H15.321L15.8022 9.56535H17.9895L18.4716 11H19.5966L17.5454 5.18182H16.2443L14.196 11ZM17.7051 8.71876L16.9176 6.37501H16.8722L16.0861 8.71876H17.7051Z" fill="black"/>
<path d="M8 5.5C8.27614 5.5 8.5 5.72386 8.5 6V16.7929L10.6464 14.6464C10.8417 14.4512 11.1583 14.4512 11.3536 14.6464C11.5488 14.8417 11.5488 15.1583 11.3536 15.3536L8 18.7071L4.64645 15.3536C4.45118 15.1583 4.45118 14.8417 4.64645 14.6464C4.84171 14.4512 5.15829 14.4512 5.35355 14.6464L7.5 16.7929V6C7.5 5.72386 7.72386 5.5 8 5.5Z" fill="black"/>
<path d="M14.4659 19V18.3438L17.4489 14.0653H14.4489V13.1818H18.7557V13.8381L15.7756 18.1165H18.7727V19H14.4659Z" fill="black"/>
</svg>
